<svg width="1920" height="155" viewBox="0 0 1920 155" fill="none" xmlns="http://www.w3.org/2000/svg">
<path fill-rule="evenodd" clip-rule="evenodd" d="M28.885 46.5791C11.2603 47.7016 6.85418 78.0063 24.9683 82.4957C12.4887 82.4957 0 107.554 0 120.654V154.89H959.567H960.433H1920V124.054V124.054V123.147V123.123C1920 104.454 1907.22 88.4716 1889.71 85.226C1891.99 79.3935 1893.17 73.142 1893.17 66.8365V66.7745C1893.17 39.7892 1872.32 17.9055 1846.61 17.9055H1846.53C1839.81 17.9055 1833.16 19.4479 1827.07 22.4063C1821.23 12.6677 1811.02 6.75385 1800.06 6.75385C1783.17 6.75385 1769.2 20.57 1768.2 38.2659C1765.51 37.0709 1762.61 36.4494 1759.68 36.4494C1759.64 36.4494 1759.6 36.4494 1759.56 36.4499C1747.37 36.4528 1737.49 46.8298 1737.49 59.6228V59.6351V59.7025C1737.49 60.5807 1737.54 61.4643 1737.64 62.3335C1729.67 56.8187 1720.31 53.8671 1710.77 53.8671C1688.33 53.8671 1668.79 69.9306 1663.4 92.7854C1661.6 91.4568 1659.65 90.3542 1657.61 89.5126C1652.17 85.1712 1645.51 82.8139 1638.68 82.8139C1634.33 82.8139 1630.02 83.768 1626.05 85.6086C1620.91 80.2101 1613.93 77.1753 1606.66 77.1753C1602.38 77.1753 1598.16 78.2252 1594.35 80.244C1587.88 64.6013 1573.17 54.4686 1556.92 54.4686C1534.39 54.4686 1516.12 73.6459 1516.12 97.2935C1516.12 98.7048 1516.19 100.132 1516.33 101.533C1516.39 102.216 1516.5 102.883 1516.61 103.551C1516.64 103.729 1516.67 103.908 1516.69 104.086C1513.24 102.946 1509.63 102.362 1506 102.362C1486.44 102.362 1470.53 118.938 1470.4 139.474C1468.54 139.069 1466.64 138.86 1464.75 138.86C1459.91 138.86 1455.15 140.198 1450.97 142.736C1447.54 138.38 1442.43 135.858 1437.04 135.858C1434.62 135.858 1432.22 136.37 1429.99 137.363C1429.15 122.882 1417.72 111.586 1403.9 111.586C1394.94 111.586 1386.6 116.407 1381.81 124.344C1376.81 121.916 1371.35 120.654 1365.84 120.654C1363.62 120.654 1361.4 120.859 1359.22 121.261C1359.38 119.512 1359.47 117.77 1359.47 115.955C1359.45 86.2941 1336.54 62.2541 1308.28 62.2541C1303.89 62.2541 1299.5 62.851 1295.26 64.0205C1287.47 40.5303 1266.35 24.7798 1242.65 24.7798C1226.9 24.7798 1211.87 31.7912 1201.31 44.0538C1192.83 32.125 1179.48 25.0899 1165.3 25.0899C1159.68 25.0899 1154.09 26.2009 1148.86 28.3614C1145.24 11.771 1131.17 0 1114.95 0C1103.44 0 1092.66 5.98348 1086.19 15.9698C1082.22 13.0911 1077.5 11.5478 1072.67 11.5478C1063.46 11.5478 1055.07 17.1288 1051.14 25.8726C1045.27 16.9086 1035.56 11.5487 1025.2 11.5487C1007.8 11.5487 993.701 26.3528 993.701 44.6079C993.701 44.6121 993.701 44.6239 993.702 44.6316V45.4541C994.083 47.165 993.505 47.0602 992.11 46.8078C991.215 46.6457 989.983 46.4226 988.452 46.5791C970.338 47.1404 963.973 75.7614 984.535 82.4957C973.255 82.4957 961.966 102.97 959.902 116.579C957.32 100.825 945.567 88.0848 930.145 85.226C928.675 49.0023 885.485 37.3004 867.499 62.3335C870.438 21.9915 823.713 13.1209 808.636 38.2659C805.943 37.0709 803.042 36.4494 800.117 36.4494C788.491 36.4494 777.919 46.0752 777.919 59.6228C777.919 60.5335 777.965 61.4299 778.07 62.3335C770.1 56.8187 760.747 53.8671 751.199 53.8671C728.766 53.8671 709.222 69.9306 703.833 92.7854C702.038 91.4568 700.088 90.3542 698.042 89.5126C692.604 85.1712 685.945 82.8139 679.109 82.8139C674.764 82.8139 670.456 83.768 666.478 85.6086C661.339 80.2101 654.362 77.1753 647.093 77.1753C642.816 77.1753 638.597 78.2252 634.778 80.244C628.314 64.6013 613.602 54.4686 597.354 54.4686C574.826 54.4686 556.558 73.6459 556.558 97.2935C556.558 98.7048 556.627 100.132 556.758 101.533C556.826 102.215 556.934 102.882 557.041 103.549C557.069 103.728 557.099 103.907 557.127 104.086C553.671 102.946 550.058 102.362 546.433 102.362C526.87 102.362 510.965 118.938 510.831 139.474C508.975 139.069 507.075 138.86 505.178 138.86C500.343 138.86 495.588 140.198 491.402 142.736C487.972 138.38 482.861 135.858 477.477 135.858C475.053 135.858 472.651 136.37 470.421 137.363C469.585 122.882 458.151 111.586 444.328 111.586C435.375 111.586 427.036 116.407 422.247 124.344C417.245 121.916 411.787 120.654 406.275 120.654C404.055 120.654 401.834 120.859 399.652 121.261C399.813 119.512 399.9 117.77 399.9 115.955C399.886 86.2941 376.973 62.2541 348.717 62.2541C344.324 62.2541 339.937 62.851 335.696 64.0205C327.9 40.5303 306.788 24.7798 283.084 24.7798C267.331 24.7798 252.299 31.7912 241.743 44.0538C233.264 32.125 219.914 25.0899 205.732 25.0899C200.11 25.0899 194.522 26.2009 189.293 28.3614C185.67 11.771 171.598 0 155.382 0C143.871 0 133.095 5.98348 126.622 15.9698C122.651 13.0911 117.931 11.5478 113.103 11.5478C103.893 11.5478 95.5045 17.1288 91.5776 25.8726C85.7065 16.9086 75.9938 11.5487 65.6281 11.5487C48.2374 11.5487 34.134 26.3528 34.134 44.6079C34.134 44.6121 34.1344 44.6239 34.1344 44.6316V45.4541C34.5154 47.165 33.9379 47.0602 32.5432 46.8078C31.6483 46.6457 30.4161 46.4226 28.885 46.5791Z" fill="#FDFBFB"/>
</svg>
